HIERARCHY
ROOT hip
{
  OFFSET 0 0 0
  CHANNELS 6 Xposition Yposition Zposition Zrotation Yrotation Xrotation
  JOINT abdomen
  {
    OFFSET 0 20.6881 -0.73152
    CHANNELS 3 Zrotation Xrotation Yrotation
    JOINT chest
    {
      OFFSET 0 11.7043 -0.48768
      CHANNELS 3 Zrotation Xrotation Yrotation
      JOINT neck
      {
        OFFSET 0 22.1894 -2.19456
        CHANNELS 3 Zrotation Xrotation Yrotation
        JOINT head
        {
          OFFSET -0.24384 7.07133 1.2192
          CHANNELS 3 Zrotation Xrotation Yrotation
          JOINT leftEye
          {
            OFFSET 4.14528 8.04674 8.04672
            CHANNELS 3 Zrotation Xrotation Yrotation
            End Site
            {
              OFFSET 1 0 0
            }
          }
          JOINT rightEye
          {
            OFFSET -3.6576 8.04674 8.04672
            CHANNELS 3 Zrotation Xrotation Yrotation
            End Site
            {
              OFFSET 1 0 0
            }
          }
        }
      }
      JOINT rCollar
      {
        OFFSET -2.68224 19.2634 -4.8768
        CHANNELS 3 Zrotation Xrotation Yrotation
        JOINT rShldr
        {
          OFFSET -8.77824 -1.95073 1.46304
          CHANNELS 3 Zrotation Xrotation Yrotation
          JOINT rForeArm
          {
            OFFSET -28.1742 -1.7115 0.48768
            CHANNELS 3 Zrotation Xrotation Yrotation
            JOINT rHand
            {
              OFFSET -22.5879 0.773209 7.07136
              CHANNELS 3 Zrotation Xrotation Yrotation
              JOINT rThumb1
              {
                OFFSET -1.2192 -0.487915 3.41376
                CHANNELS 3 Zrotation Xrotation Yrotation
                JOINT rThumb2
                {
                  OFFSET -3.37035 -0.52449 3.41376
                  CHANNELS 3 Zrotation Xrotation Yrotation
                  End Site
                  {
                    OFFSET -1.78271 -1.18214 1.43049
                  }
                }
              }
              JOINT rIndex1
              {
                OFFSET -7.75947 0.938293 5.60832
                CHANNELS 3 Zrotation Xrotation Yrotation
                JOINT rIndex2
                {
                  OFFSET -2.54057 -0.884171 1.56538
                  CHANNELS 3 Zrotation Xrotation Yrotation
                  End Site
                  {
                    OFFSET -1.62519 -0.234802 1.16502
                  }
                }
              }
              JOINT rMid1
              {
                OFFSET -8.24714 1.18213 3.41376
                CHANNELS 3 Zrotation Xrotation Yrotation
                JOINT rMid2
                {
                  OFFSET -3.10165 -0.590103 1.0647
                  CHANNELS 3 Zrotation Xrotation Yrotation
                  End Site
                  {
                    OFFSET -2.48547 -0.328903 0.83742
                  }
                }
              }
              JOINT rRing1
              {
                OFFSET -8.82822 0.546677 1.51678
                CHANNELS 3 Zrotation Xrotation Yrotation
                JOINT rRing2
                {
                  OFFSET -2.60934 -0.819778 -0.0198488
                  CHANNELS 3 Zrotation Xrotation Yrotation
                  End Site
                  {
                    OFFSET -2.33842 -0.294052 0.168128
                  }
                }
              }
              JOINT rPinky1
              {
                OFFSET -8.27202 -0.0477905 -0.4584
                CHANNELS 3 Zrotation Xrotation Yrotation
                JOINT rPinky2
                {
                  OFFSET -1.82734 -0.647385 -0.700984
                  CHANNELS 3 Zrotation Xrotation Yrotation
                  End Site
                  {
                    OFFSET -1.69225 -0.51767 -0.607171
                  }
                }
              }
            }
          }
        }
      }
      JOINT lCollar
      {
        OFFSET 2.68224 19.2634 -4.8768
        CHANNELS 3 Zrotation Xrotation Yrotation
        JOINT lShldr
        {
          OFFSET 8.77824 -1.95073 1.46304
          CHANNELS 3 Zrotation Xrotation Yrotation
          JOINT lForeArm
          {
            OFFSET 28.1742 -1.7115 0.48768
            CHANNELS 3 Zrotation Xrotation Yrotation
            JOINT lHand
            {
              OFFSET 22.5879 0.773209 7.07136
              CHANNELS 3 Zrotation Xrotation Yrotation
              JOINT lThumb1
              {
                OFFSET 1.2192 -0.487915 3.41376
                CHANNELS 3 Zrotation Xrotation Yrotation
                JOINT lThumb2
                {
                  OFFSET 3.37035 -0.52449 3.41376
                  CHANNELS 3 Zrotation Xrotation Yrotation
                  End Site
                  {
                    OFFSET 1.78271 -1.18214 1.43049
                  }
                }
              }
              JOINT lIndex1
              {
                OFFSET 7.75947 0.938293 5.60832
                CHANNELS 3 Zrotation Xrotation Yrotation
                JOINT lIndex2
                {
                  OFFSET 2.54057 -0.884171 1.56538
                  CHANNELS 3 Zrotation Xrotation Yrotation
                  End Site
                  {
                    OFFSET 1.62519 -0.234802 1.16502
                  }
                }
              }
              JOINT lMid1
              {
                OFFSET 8.24714 1.18213 3.41376
                CHANNELS 3 Zrotation Xrotation Yrotation
                JOINT lMid2
                {
                  OFFSET 3.10165 -0.590103 1.0647
                  CHANNELS 3 Zrotation Xrotation Yrotation
                  End Site
                  {
                    OFFSET 2.48547 -0.328903 0.83742
                  }
                }
              }
              JOINT lRing1
              {
                OFFSET 8.82822 0.546677 1.51678
                CHANNELS 3 Zrotation Xrotation Yrotation
                JOINT lRing2
                {
                  OFFSET 2.60934 -0.819778 -0.0198488
                  CHANNELS 3 Zrotation Xrotation Yrotation
                  End Site
                  {
                    OFFSET 2.33842 -0.294052 0.168128
                  }
                }
              }
              JOINT lPinky1
              {
                OFFSET 8.27202 -0.0477905 -0.4584
                CHANNELS 3 Zrotation Xrotation Yrotation
                JOINT lPinky2
                {
                  OFFSET 1.82734 -0.647385 -0.700984
                  CHANNELS 3 Zrotation Xrotation Yrotation
                  End Site
                  {
                    OFFSET 1.69225 -0.51767 -0.607171
                  }
                }
              }
            }
          }
        }
      }
    }
  }
  JOINT rButtock
  {
    OFFSET -8.77824 4.35084 1.2192
    CHANNELS 3 Zrotation Xrotation Yrotation
    JOINT rThigh
    {
      OFFSET 0 -1.70687 -2.19456
      CHANNELS 3 Zrotation Xrotation Yrotation
      JOINT rShin
      {
        OFFSET 0 -36.8199 0.73152
        CHANNELS 3 Zrotation Xrotation Yrotation
        JOINT rFoot
        {
          OFFSET 0.73152 -45.1104 -5.12064
          CHANNELS 3 Zrotation Xrotation Yrotation
          End Site
          {
            OFFSET -1.1221 -3.69964 12.103
          }
        }
      }
    }
  }
  JOINT lButtock
  {
    OFFSET 8.77824 4.35084 1.2192
    CHANNELS 3 Zrotation Xrotation Yrotation
    JOINT lThigh
    {
      OFFSET 0 -1.70687 -2.19456
      CHANNELS 3 Zrotation Xrotation Yrotation
      JOINT lShin
      {
        OFFSET 0 -36.8199 0.73152
        CHANNELS 3 Zrotation Xrotation Yrotation
        JOINT lFoot
        {
          OFFSET -0.73152 -45.1104 -5.12064
          CHANNELS 3 Zrotation Xrotation Yrotation
          End Site
          {
            OFFSET 1.1221 -3.69964 12.103
          }
        }
      }
    }
  }
}
MOTION
Frames:	9
Frame Time:	0.00833333
149.451 84.9791 -2.9009 653.039 102.757 651.674 -16.0915 5.98544 -2.81751 6.99374 1.63863 -0.992327 2.98022 -7.23917 1.02548 -0.510857 14.0918 1.78187 -0.0 0.0 0.0 -0.0 0.0 0.0 -1.01344e-13 -1.48071e-12 -2.47852e-14 84.1307 18.5116 -14.471 -12.4231 -5.74946 22.4323 -0.0315412 5.02316 0.707861 2.89437e-09 6.58188e-10 -3.8131e-09 4.98052e-09 1.14588e-09 -6.61051e-09 2.89438e-09 6.58197e-10 -3.81311e-09 7.73091 5.47488 0.417314 2.89438e-09 6.58194e-10 -3.8131e-09 2.90554 0.965183 0.102902 2.89438e-09 6.5819e-10 -3.8131e-09 10.2786 0.731801 0.0259123 2.89437e-09 6.58188e-10 -3.81309e-09 2.22167 -0.733487 -0.20892 -1.01451e-13 -1.48092e-12 -2.50585e-14 -58.5207 42.374 -28.6252 17.5326 -10.1925 -32.9805 0.00234305 1.3602 -0.191202 3.40273e-10 9.46312e-10 9.52752e-11 5.94625e-10 1.63617e-09 1.6149e-10 3.40273e-10 9.46313e-10 9.52818e-11 -7.73091 5.47488 -0.417314 3.40274e-10 9.46314e-10 9.5276e-11 -2.90554 0.965183 -0.102902 3.40272e-10 9.46312e-10 9.52753e-11 -10.2786 0.731801 -0.0259123 3.4028e-10 9.46312e-10 9.52646e-11 -2.22167 -0.733487 0.20892 -2.03217e-16 0.0 -3.88251e-19 -14.7525 -33.736 -7.79964 -0.204804 31.3514 0.274703 -0.22505 -10.7633 0.566117 2.03217e-16 0.0 3.88251e-19 -15.0948 23.1628 -0.793638 0.00431385 -1.2179 0.0362569 1.13315 -12.0441 2.50512
150.358 84.9814 -2.78535 653.83 102.328 652.55 -15.6236 5.89059 -2.8513 6.91319 1.5998 -0.994047 2.94141 -7.19872 0.999076 -0.445649 14.2092 1.75229 -0.0 0.0 0.0 -0.0 0.0 0.0 -1.85205e-13 -1.16641e-12 -4.66647e-14 83.99 18.3895 -14.2431 -12.3559 -5.70142 22.301 -0.0382529 5.57365 0.78583 2.85322e-09 6.38188e-10 -3.85768e-09 4.90884e-09 1.11103e-09 -6.68758e-09 2.85323e-09 6.38197e-10 -3.85769e-09 7.73091 5.47488 0.417314 2.85323e-09 6.38193e-10 -3.85768e-09 2.90554 0.965183 0.102902 2.85323e-09 6.38189e-10 -3.85768e-09 10.2786 0.731801 0.0259123 2.85322e-09 6.38187e-10 -3.85767e-09 2.22167 -0.733487 -0.20892 -1.85341e-13 -1.16642e-12 -4.69629e-14 -59.3352 42.4907 -27.8267 17.4386 -10.0956 -32.7726 0.0026996 1.48342 -0.208528 1.39179e-10 9.64586e-10 4.02913e-11 2.46957e-10 1.66777e-09 6.67193e-11 1.39181e-10 9.64588e-10 4.02976e-11 -7.73091 5.47488 -0.417314 1.3918e-10 9.64588e-10 4.02913e-11 -2.90554 0.965183 -0.102902 1.39181e-10 9.64586e-10 4.02913e-11 -10.2786 0.731801 -0.0259123 1.39186e-10 9.64586e-10 4.02817e-11 -2.22167 -0.733487 0.20892 -2.03217e-16 0.0 -3.88251e-19 -14.4702 -33.6058 -7.96429 -0.211808 31.7884 0.288333 -0.388465 -9.38519 -0.0800934 2.03217e-16 0.0 3.88251e-19 -14.6815 23.7626 -0.959366 0.00363813 -1.17303 0.0304028 1.15177 -11.7354 2.61905
151.37 84.9937 -2.66275 654.911 101.789 653.602 -14.8708 5.82068 -2.83838 6.76074 1.51588 -0.978525 2.89586 -7.16231 0.973464 -0.41062 14.3747 1.73379 -0.0 0.0 0.0 -0.0 0.0 0.0 -1.80395e-13 -1.11033e-12 -4.11919e-14 83.8002 18.1852 -13.9559 -12.253 -5.62829 22.0994 -0.0472222 6.27572 0.885404 2.57903e-09 6.48696e-10 -3.36637e-09 4.43714e-09 1.12883e-09 -5.83703e-09 2.57904e-09 6.48703e-10 -3.36639e-09 7.73091 5.47488 0.417314 2.57903e-09 6.48699e-10 -3.36637e-09 2.90554 0.965183 0.102902 2.57904e-09 6.48695e-10 -3.36637e-09 10.2786 0.731801 0.0259123 2.57903e-09 6.48694e-10 -3.36636e-09 2.22167 -0.733487 -0.20892 -1.80542e-13 -1.11033e-12 -4.14827e-14 -60.2877 42.5697 -26.8943 17.3364 -9.99042 -32.5484 0.00334458 1.6626 -0.233729 1.00276e-10 8.20267e-10 1.57054e-10 1.79087e-10 1.41814e-09 2.69271e-10 1.00278e-10 8.2027e-10 1.57061e-10 -7.73091 5.47488 -0.417314 1.00276e-10 8.20268e-10 1.57053e-10 -2.90554 0.965183 -0.102902 1.00275e-10 8.20268e-10 1.57052e-10 -10.2786 0.731801 -0.0259123 1.00281e-10 8.20268e-10 1.57044e-10 -2.22167 -0.733487 0.20892 -2.03217e-16 0.0 -3.88251e-19 -13.9625 -33.3054 -8.10952 -0.216539 32.07 0.298365 -0.397859 -8.39593 -0.124894 2.03217e-16 0.0 3.88251e-19 -14.0674 24.3764 -1.07075 0.00293036 -1.13015 0.0243 1.16654 -11.5303 2.70615
152.393 85.0064 -2.4791 656.51 101.016 655.099 -13.9186 5.76391 -2.79477 6.55613 1.39983 -0.951359 2.84828 -7.1247 0.949218 -0.39664 14.5805 1.72461 -0.0 0.0 0.0 -0.0 0.0 0.0 -1.24344e-13 -1.12082e-12 -2.00462e-14 83.5685 17.894 -13.6099 -12.1162 -5.53149 21.8333 -0.060681 7.1299 1.00702 2.12031e-09 6.76388e-10 -2.48768e-09 3.64851e-09 1.1762e-09 -4.31583e-09 2.12032e-09 6.76391e-10 -2.4877e-09 7.73091 5.47488 0.417314 2.12032e-09 6.76388e-10 -2.48768e-09 2.90554 0.965183 0.102902 2.12032e-09 6.76385e-10 -2.48768e-09 10.2786 0.731801 0.0259123 2.12031e-09 6.76385e-10 -2.48768e-09 2.22167 -0.733487 -0.20892 -1.24493e-13 -1.12082e-12 -2.03164e-14 -61.3531 42.62 -25.8414 17.2252 -9.87637 -32.3066 0.00433891 1.88225 -0.26463 1.46877e-10 5.60588e-10 3.82727e-10 2.58575e-10 9.68988e-10 6.60438e-10 1.4688e-10 5.60592e-10 3.82736e-10 -7.73091 5.47488 -0.417314 1.46877e-10 5.60588e-10 3.82725e-10 -2.90554 0.965183 -0.102902 1.46874e-10 5.60591e-10 3.82723e-10 -10.2786 0.731801 -0.0259123 1.46881e-10 5.60592e-10 3.82715e-10 -2.22167 -0.733487 0.20892 -2.03217e-16 0.0 -3.88251e-19 -13.3185 -32.9071 -8.29885 -0.219779 32.2546 0.306003 -0.323602 -7.59613 0.245589 2.03217e-16 0.0 3.88251e-19 -13.3144 24.9992 -1.14244 0.00219714 -1.0875 0.0179844 1.17897 -11.3749 2.77792
153.301 85.0238 -2.33791 658.396 100.512 656.931 -12.9093 5.72484 -2.73719 6.34197 1.30114 -0.920902 2.82263 -7.08394 0.93407 -0.419204 14.7885 1.73009 -0.0 0.0 0.0 -0.0 0.0 0.0 -5.38976e-14 -1.05903e-12 3.23336e-15 83.3212 17.6292 -13.2104 -11.9851 -5.43879 21.5798 -0.0767775 7.95294 1.12482 1.44122e-09 6.29216e-10 -1.27213e-09 2.48166e-09 1.09366e-09 -2.21035e-09 1.44123e-09 6.29215e-10 -1.27214e-09 7.73091 5.47488 0.417314 1.44122e-09 6.29212e-10 -1.27213e-09 2.90554 0.965183 0.102902 1.44123e-09 6.29211e-10 -1.27213e-09 10.2786 0.731801 0.0259123 1.44121e-09 6.29212e-10 -1.27213e-09 2.22167 -0.733487 -0.20892 -5.40398e-14 -1.05904e-12 2.99458e-15 -62.4708 42.6169 -24.7382 17.0957 -9.74526 -32.0243 0.00561437 2.13147 -0.299702 2.44688e-10 2.45595e-10 5.27106e-10 4.25698e-10 4.24265e-10 9.10964e-10 2.44691e-10 2.456e-10 5.27117e-10 -7.73091 5.47488 -0.417314 2.44687e-10 2.45594e-10 5.27103e-10 -2.90554 0.965183 -0.102902 2.44682e-10 2.456e-10 5.271e-10 -10.2786 0.731801 -0.0259123 2.4469e-10 2.45601e-10 5.27093e-10 -2.22167 -0.733487 0.20892 -2.03217e-16 0.0 -3.88251e-19 -12.5802 -32.4136 -8.42704 -0.222038 32.3863 0.313282 -0.234716 -7.02312 0.734615 2.03217e-16 0.0 3.88251e-19 -12.5119 25.6355 -1.18841 0.00157867 -1.04424 0.0126397 1.18135 -11.0753 2.83776
154.276 85.0318 -2.18975 659.129 99.9864 657.535 -11.9855 5.70802 -2.68235 6.16069 1.26935 -0.895498 2.84287 -7.03807 0.935752 -0.49389 14.961 1.75558 -0.0 0.0 0.0 -0.0 0.0 0.0 -5.90139e-15 -7.8611e-13 1.51076e-14 83.0813 17.5048 -12.7613 -11.8997 -5.37849 21.4158 -0.0907549 8.56162 1.21238 5.05886e-10 4.15129e-10 2.2977e-10 8.75299e-10 7.21738e-10 3.9303e-10 5.05899e-10 4.15125e-10 2.29754e-10 7.73091 5.47488 0.417314 5.05892e-10 4.15123e-10 2.2976e-10 2.90554 0.965183 0.102902 5.05901e-10 4.15123e-10 2.2976e-10 10.2786 0.731801 0.0259123 5.05883e-10 4.15126e-10 2.29757e-10 2.22167 -0.733487 -0.20892 -6.02606e-15 -7.86115e-13 1.49089e-14 -63.5784 42.5385 -23.6574 16.9377 -9.58852 -31.6784 0.0070661 2.39941 -0.337414 3.59412e-10 -6.4667e-11 3.99987e-10 6.2073e-10 -1.12064e-10 6.91594e-10 3.59414e-10 -6.46611e-11 3.99999e-10 -7.73091 5.47488 -0.417314 3.59411e-10 -6.46684e-11 3.99983e-10 -2.90554 0.965183 -0.102902 3.59404e-10 -6.46608e-11 3.9998e-10 -10.2786 0.731801 -0.0259123 3.59414e-10 -6.46599e-11 3.99974e-10 -2.22167 -0.733487 0.20892 -2.03217e-16 0.0 -3.88251e-19 -11.7946 -31.8281 -8.39139 -0.223887 32.5094 0.322269 -0.182323 -6.71511 1.0478 2.03217e-16 0.0 3.88251e-19 -11.7482 26.2894 -1.22292 0.00121182 -0.999553 0.00944965 1.16513 -10.4377 2.88914
155.335 85.0762 -2.07938 659.944 99.603 658.115 -11.1913 5.70307 -2.63269 6.02717 1.3455 -0.880228 2.94 -6.98745 0.965021 -0.666038 15.0644 1.81299 -0.0 0.0 0.0 -0.0 0.0 0.0 8.92332e-15 2.92477e-14 4.27698e-15 82.8384 17.5532 -12.2399 -11.8772 -5.36251 21.3729 -0.0988243 8.89297 1.26018 -9.91992e-10 -8.48391e-11 2.38192e-09 -1.69648e-09 -1.46072e-10 4.12642e-09 -9.91981e-10 -8.48436e-11 2.38191e-09 7.73091 5.47488 0.417314 -9.91987e-10 -8.48454e-11 2.38192e-09 2.90554 0.965183 0.102902 -9.91978e-10 -8.48454e-11 2.38192e-09 10.2786 0.731801 0.0259123 -9.91996e-10 -8.48419e-11 2.38191e-09 2.22167 -0.733487 -0.20892 8.83745e-15 2.92438e-14 4.14031e-15 -64.6461 42.3572 -22.651 16.7406 -9.39524 -31.249 0.00884776 2.7095 -0.381072 4.64967e-10 -4.06936e-10 -1.86938e-10 7.97207e-10 -7.03341e-10 -3.23216e-10 4.64969e-10 -4.0693e-10 -1.86926e-10 -7.73091 5.47488 -0.417314 4.64965e-10 -4.06937e-10 -1.8694e-10 -2.90554 0.965183 -0.102902 4.64959e-10 -4.06929e-10 -1.86944e-10 -10.2786 0.731801 -0.0259123 4.6497e-10 -4.06928e-10 -1.8695e-10 -2.22167 -0.733487 0.20892 -2.03217e-16 0.0 -3.88251e-19 -10.9483 -31.1253 -8.09852 -0.225144 32.638 0.339362 -0.176591 -6.77613 1.08304 2.03217e-16 0.0 3.88251e-19 -11.0435 27.1483 -1.24608 0.000140562 -1.24821 0.0109905 1.12384 -9.31947 2.94004
156.398 85.1671 -1.95547 661.706 99.1744 659.624 -10.4487 5.71142 -2.57995 5.91751 1.4939 -0.869691 3.09295 -6.93283 1.01485 -0.913751 15.1267 1.896 -0.0 0.0 0.0 -0.0 0.0 0.0 1.0526e-14 1.21489e-12 -1.94747e-14 82.5811 17.7131 -11.6506 -11.8945 -5.37456 21.4063 -0.102293 9.04946 1.28272 -2.93438e-09 -7.90122e-10 5.08548e-09 -5.03113e-09 -1.37005e-09 8.81749e-09 -2.93437e-09 -7.90126e-10 5.08548e-09 7.73091 5.47488 0.417314 -2.93437e-09 -7.90127e-10 5.08548e-09 2.90554 0.965183 0.102902 -2.93437e-09 -7.90127e-10 5.08548e-09 10.2786 0.731801 0.0259123 -2.93438e-09 -7.90124e-10 5.08548e-09 2.22167 -0.733487 -0.20892 1.04962e-14 1.21489e-12 -1.95306e-14 -65.7031 42.0922 -21.6762 16.51 -9.17113 -30.7535 0.0112227 3.05877 -0.430279 5.8529e-10 -7.95652e-10 -1.08636e-09 9.97162e-10 -1.37466e-09 -1.87862e-09 5.85292e-10 -7.95646e-10 -1.08635e-09 -7.73091 5.47488 -0.417314 5.85288e-10 -7.95652e-10 -1.08636e-09 -2.90554 0.965183 -0.102902 5.85284e-10 -7.95646e-10 -1.08637e-09 -10.2786 0.731801 -0.0259123 5.85295e-10 -7.95645e-10 -1.08637e-09 -2.22167 -0.733487 0.20892 -2.03217e-16 0.0 -3.88251e-19 -10.0385 -30.3099 -7.63309 -0.225647 32.7477 0.361525 -0.186598 -7.15463 1.00585 2.03217e-16 0.0 3.88251e-19 -10.3527 28.1481 -1.25124 -0.00132262 -1.69232 0.0158792 1.06217 -7.85442 2.98749
157.411 85.2651 -1.74843 663.798 98.4693 661.482 -9.71709 5.75537 -2.52483 5.81585 1.64897 -0.8565 3.24756 -6.87285 1.06627 -1.1518 15.2023 1.9826 -0.0 0.0 0.0 -0.0 0.0 0.0 8.06807e-15 2.15451e-12 -3.80611e-14 82.3278 17.9583 -11.0365 -11.9319 -5.40083 21.4784 -0.10287 9.09611 1.28938 -4.7206e-09 -1.49347e-09 7.59578e-09 -8.09727e-09 -2.59038e-09 1.31733e-08 -4.72059e-09 -1.49347e-09 7.59578e-09 7.73091 5.47488 0.417314 -4.7206e-09 -1.49347e-09 7.59577e-09 2.90554 0.965183 0.102902 -4.72059e-09 -1.49347e-09 7.59578e-09 10.2786 0.731801 0.0259123 -4.72061e-09 -1.49347e-09 7.59578e-09 2.22167 -0.733487 -0.20892 8.08994e-15 2.15451e-12 -3.80455e-14 -66.7758 41.7911 -20.6627 16.2613 -8.93272 -30.2249 0.0139776 3.39666 -0.477924 7.61112e-10 -1.13733e-09 -1.98508e-09 1.29361e-09 -1.96467e-09 -3.43327e-09 7.61114e-10 -1.13732e-09 -1.98507e-09 -7.73091 5.47488 -0.417314 7.61111e-10 -1.13732e-09 -1.98508e-09 -2.90554 0.965183 -0.102902 7.61109e-10 -1.13732e-09 -1.98508e-09 -10.2786 0.731801 -0.0259123 7.61119e-10 -1.13732e-09 -1.98509e-09 -2.22167 -0.733487 0.20892 -2.03217e-16 0.0 -3.88251e-19 -9.12485 -29.4309 -7.15758 -0.225927 32.8249 0.376638 -0.196098 -7.65587 0.923799 2.03217e-16 0.0 3.88251e-19 -9.66665 28.9152 -1.24228 -0.00130206 -1.74204 0.0193551 0.989457 -6.26305 3.01855
